# Blender v3.0.0 OBJ File: 'door_side_b.blend'
# www.blender.org
mtllib door_side_b.mtl
o Cube.011_Cube.005
v -0.500000 -0.500000 -0.500000
v -0.500000 0.500000 -0.500000
v 0.500000 -0.500000 -0.500000
v 0.500000 0.500000 -0.500000
v -0.500000 -0.500000 0.500000
v -0.500000 0.500000 0.500000
v 0.500000 -0.500000 0.100000
v 0.500000 0.500000 0.100000
v -0.000000 -0.500000 -0.500000
v -0.000000 0.500000 -0.500000
v 0.000000 -0.500000 0.300000
v 0.000000 0.500000 0.300000
v 0.250000 0.500000 -0.500000
v 0.250000 -0.500000 0.300000
v 0.250000 -0.500000 -0.500000
v 0.250000 0.500000 0.300000
v -0.250000 -0.500000 -0.500000
v -0.250000 0.500000 0.400000
v -0.250000 0.500000 -0.500000
v -0.250000 -0.500000 0.400000
v 0.375000 0.500000 -0.500000
v 0.375000 -0.500000 0.200000
v 0.375000 -0.500000 -0.500000
v 0.375000 0.500000 0.200000
v 0.125000 -0.500000 -0.500000
v 0.125000 0.500000 0.300000
v 0.125000 0.500000 -0.500000
v 0.125000 -0.500000 0.300000
v -0.125000 0.500000 -0.500000
v -0.125000 -0.500000 0.400000
v -0.125000 -0.500000 -0.500000
v -0.125000 0.500000 0.400000
v -0.375000 -0.500000 -0.500000
v -0.375000 0.500000 0.400000
v -0.375000 0.500000 -0.500000
v -0.375000 -0.500000 0.400000
vt 1.000000 0.000000
vt 1.000000 1.000000
vt 0.000000 1.000000
vt 0.000000 0.000000
vt 0.125000 0.000000
vt 0.125000 1.000000
vt 0.000000 1.000000
vt 0.000000 0.000000
vt 1.000000 0.000000
vt 1.000000 1.000000
vt 0.000000 1.000000
vt 0.000000 0.000000
vt 0.125000 0.718750
vt 0.375000 0.718750
vt 0.375000 0.750000
vt 0.125000 0.750000
vt 0.125000 0.593750
vt 0.375000 0.593750
vt 0.375000 0.625000
vt 0.125000 0.625000
vt 0.875000 1.000000
vt 0.750000 1.000000
vt 0.750000 0.000000
vt 0.875000 0.000000
vt 1.000000 0.000000
vt 1.000000 1.000000
vt 0.875000 1.000000
vt 0.875000 0.000000
vt 0.750000 0.000000
vt 0.625000 0.000000
vt 0.500000 0.000000
vt 0.375000 0.000000
vt 0.250000 0.000000
vt 0.125000 0.000000
vt 0.125000 1.000000
vt 0.250000 1.000000
vt 0.375000 1.000000
vt 0.500000 1.000000
vt 0.625000 1.000000
vt 0.750000 1.000000
vt 0.125000 0.531250
vt 0.375000 0.531250
vt 0.375000 0.562500
vt 0.125000 0.562500
vt 0.125000 0.656250
vt 0.375000 0.656250
vt 0.375000 0.687500
vt 0.125000 0.687500
vt 0.625000 1.000000
vt 0.500000 1.000000
vt 0.500000 0.000000
vt 0.625000 0.000000
vt 0.375000 0.000000
vt 0.375000 1.000000
vt 0.250000 1.000000
vt 0.250000 0.000000
vt 0.125000 0.500000
vt 0.375000 0.500000
vt 0.000000 0.000000
vt 0.125000 0.100000
vt 0.250000 0.100000
vt 0.375000 0.100000
vt 0.500000 0.200000
vt 0.625000 0.200000
vt 0.750000 0.200000
vt 0.875000 0.300000
vt 1.000000 0.400000
vn 1.0000 0.0000 -0.0000
vn 0.6247 0.0000 0.7809
vn -1.0000 0.0000 0.0000
vn 0.0000 -1.0000 0.0000
vn -0.0000 0.0000 -1.0000
vn 0.0000 0.0000 1.0000
vn 0.0000 1.0000 -0.0000
usemtl None
s off
f 3/1/1 4/2/1 8/3/1 7/4/1
f 36/5/2 34/6/2 6/7/2 5/8/2
f 5/9/3 6/10/3 2/11/3 1/12/3
f 33/13/4 36/14/4 5/15/4 1/16/4
f 25/17/4 28/18/4 11/19/4 9/20/4
f 24/21/2 16/22/2 14/23/2 22/24/2 7/25/2 8/26/2
f 21/27/5 4/2/5 3/1/5 23/28/5 15/29/5 25/30/5 9/31/5 31/32/5 17/33/5 33/34/5 1/12/5 2/11/5 35/35/5 19/36/5 29/37/5 10/38/5 27/39/5 13/40/5
f 23/41/4 22/42/4 14/43/4 15/44/4
f 31/45/4 30/46/4 20/47/4 17/48/4
f 26/49/6 12/50/6 11/51/6 28/52/6 14/23/6 16/22/6
f 30/53/6 32/54/6 18/55/6 34/6/6 36/5/6 20/56/6
f 3/57/4 7/58/4 22/42/4 23/41/4
f 15/44/4 14/43/4 28/18/4 25/17/4
f 11/51/2 12/50/2 32/54/2 30/53/2
f 9/20/4 11/19/4 30/46/4 31/45/4
f 17/48/4 20/47/4 36/14/4 33/13/4
f 35/35/7 2/11/7 6/59/7 34/60/7 18/61/7 32/62/7 12/63/7 26/64/7 16/65/7 24/66/7 8/67/7 4/2/7 21/27/7 13/40/7 27/39/7 10/38/7 29/37/7 19/36/7
