# Blender v3.0.0 OBJ File: 'door_side.blend'
# www.blender.org
mtllib door_side.mtl
o Cube.010_Cube.006
v 0.500000 0.500000 -0.500000
v 0.500000 -0.500000 -0.500000
v -0.500000 0.500000 -0.500000
v -0.500000 -0.500000 -0.500000
v 0.500000 0.500000 0.500000
v 0.500000 -0.500000 0.500000
v -0.500000 0.500000 0.100000
v -0.500000 -0.500000 0.100000
v 0.000000 0.500000 -0.500000
v -0.000000 -0.500000 -0.500000
v 0.000000 0.500000 0.300000
v -0.000000 -0.500000 0.300000
v -0.250000 -0.500000 -0.500000
v -0.250000 0.500000 0.300000
v -0.250000 0.500000 -0.500000
v -0.250000 -0.500000 0.300000
v 0.250000 0.500000 -0.500000
v 0.250000 -0.500000 0.400000
v 0.250000 -0.500000 -0.500000
v 0.250000 0.500000 0.400000
v -0.375000 -0.500000 -0.500000
v -0.375000 0.500000 0.200000
v -0.375000 0.500000 -0.500000
v -0.375000 -0.500000 0.200000
v -0.125000 0.500000 -0.500000
v -0.125000 -0.500000 0.300000
v -0.125000 -0.500000 -0.500000
v -0.125000 0.500000 0.300000
v 0.125000 -0.500000 -0.500000
v 0.125000 0.500000 0.400000
v 0.125000 0.500000 -0.500000
v 0.125000 -0.500000 0.400000
v 0.375000 0.500000 -0.500000
v 0.375000 -0.500000 0.400000
v 0.375000 -0.500000 -0.500000
v 0.375000 0.500000 0.400000
vt 1.000000 1.000000
vt 1.000000 0.000000
vt 0.000000 0.000000
vt 0.000000 1.000000
vt 0.875000 1.000000
vt 0.875000 0.000000
vt 1.000000 0.000000
vt 1.000000 1.000000
vt 0.000000 1.000000
vt 0.000000 0.000000
vt 1.000000 0.000000
vt 1.000000 1.000000
vt 0.625000 1.000000
vt 0.625000 0.000000
vt 0.750000 0.000000
vt 0.750000 1.000000
vt 0.375000 0.000000
vt 0.500000 0.000000
vt 0.500000 1.000000
vt 0.375000 1.000000
vt 0.250000 1.000000
vt 0.250000 0.000000
vt 0.125000 0.000000
vt 0.000000 0.000000
vt 0.000000 1.000000
vt 0.125000 1.000000
vt 0.250000 1.000000
vt 0.375000 1.000000
vt 0.500000 1.000000
vt 0.625000 1.000000
vt 0.750000 1.000000
vt 0.875000 1.000000
vt 0.875000 0.000000
vt 0.750000 0.000000
vt 0.625000 0.000000
vt 0.500000 0.000000
vt 0.375000 0.000000
vt 0.250000 0.000000
vt 0.125000 0.000000
vt 0.125000 1.000000
vt 0.875000 0.100000
vt 1.000000 0.000000
vt 0.000000 0.400000
vt 0.125000 0.300000
vt 0.250000 0.200000
vt 0.375000 0.200000
vt 0.500000 0.200000
vt 0.625000 0.100000
vt 0.750000 0.100000
vt 1.000000 1.000000
vt 0.875000 0.900000
vt 0.750000 0.900000
vt 0.625000 0.900000
vt 0.500000 0.800000
vt 0.375000 0.800000
vt 0.250000 0.800000
vt 0.125000 0.700000
vt 0.000000 0.600000
vn -1.0000 0.0000 0.0000
vn -0.6247 0.0000 0.7809
vn 1.0000 -0.0000 -0.0000
vn 0.0000 0.0000 1.0000
vn -0.0000 0.0000 -1.0000
vn 0.0000 1.0000 0.0000
vn -0.0000 -1.0000 0.0000
usemtl None
s off
f 3/1/1 4/2/1 8/3/1 7/4/1
f 36/5/2 34/6/2 6/7/2 5/8/2
f 5/9/3 6/10/3 2/11/3 1/12/3
f 30/13/4 32/14/4 18/15/4 34/6/4 36/5/4 20/16/4
f 26/17/4 12/18/4 11/19/4 28/20/4 14/21/4 16/22/4
f 21/23/5 4/24/5 3/25/5 23/26/5 15/27/5 25/28/5 9/29/5 31/30/5 17/31/5 33/32/5 1/12/5 2/11/5 35/33/5 19/34/5 29/35/5 10/36/5 27/37/5 13/38/5
f 11/19/2 12/18/2 32/14/2 30/13/2
f 24/39/2 16/22/2 14/21/2 22/40/2 7/4/2 8/3/2
f 36/41/6 5/42/6 1/12/6 33/32/6 17/31/6 31/30/6 9/29/6 25/28/6 15/27/6 23/26/6 3/25/6 7/43/6 22/44/6 14/45/6 28/46/6 11/47/6 30/48/6 20/49/6
f 35/33/7 2/11/7 6/50/7 34/51/7 18/52/7 32/53/7 12/54/7 26/55/7 16/56/7 24/57/7 8/58/7 4/24/7 21/23/7 13/38/7 27/37/7 10/36/7 29/35/7 19/34/7
