# Blender v3.0.0 OBJ File: 'nissho_head.blend'
# www.blender.org
mtllib nissho_head.mtl
o Cube.009_Cube.004
v -0.300000 -0.500000 0.200000
v -0.200000 0.500000 0.200000
v -0.192000 -0.302000 -0.150400
v -0.128000 0.338000 -0.278400
v 0.300000 -0.500000 0.200000
v 0.200000 0.500000 0.200000
v 0.192000 -0.302000 -0.150400
v 0.128000 0.338000 -0.278400
v 0.000000 -0.302000 -0.150400
v 0.000000 0.338000 -0.278400
v 0.000000 -0.500000 0.400000
v 0.000000 0.500000 0.300000
v -0.400000 0.000000 0.400000
v -0.256000 0.018000 -0.278400
v 0.256000 0.018000 -0.278400
v 0.400000 0.000000 0.400000
v 0.000000 0.000000 0.500000
v 0.000000 0.000000 -0.300000
v -0.400000 0.250000 0.400000
v -0.256000 0.178000 -0.278400
v 0.256000 0.178000 -0.278400
v 0.400000 0.250000 0.400000
v 0.000000 0.250000 0.500000
vt 0.187500 0.562500
vt 0.250000 0.562500
vt 0.250000 0.812500
vt 0.187500 0.812500
vt 0.375000 0.250000
vt 0.500000 0.250000
vt 0.500000 0.375000
vt 0.500000 0.500000
vt 0.375000 0.500000
vt 0.375000 0.375000
vt 0.734375 0.593750
vt 0.796875 0.593750
vt 0.796875 0.843750
vt 0.734375 0.843750
vt 0.500000 0.704375
vt 0.500000 0.861875
vt 0.342500 0.861875
vt 0.185000 0.704375
vt 0.625000 0.375000
vt 0.625000 0.500000
vt 0.562500 0.500000
vt 0.562500 0.250000
vt 0.625000 0.250000
vt 0.815000 0.704375
vt 0.657500 0.861875
vt 0.665375 0.231875
vt 0.815000 0.546875
vt 0.500000 0.546875
vt 0.500000 0.231875
vt 0.185000 0.546875
vt 0.334625 0.231875
vt 0.281250 0.000000
vt 0.406250 0.000000
vt 0.406250 0.250000
vt 0.281250 0.250000
vt 0.718750 0.250000
vt 0.593750 0.250000
vt 0.593750 0.000000
vt 0.718750 0.000000
vt 0.781250 0.453125
vt 0.843750 0.453125
vt 0.843750 0.703125
vt 0.781250 0.703125
vt 0.156250 0.484375
vt 0.218750 0.484375
vt 0.218750 0.734375
vt 0.156250 0.734375
vt 0.515625 0.812500
vt 0.640625 0.812500
vt 0.640625 0.937500
vt 0.515625 0.937500
vt 0.390625 0.937500
vt 0.390625 0.812500
vt 0.250000 0.500000
vt 0.375000 0.750000
vt 0.250000 0.750000
vt 0.125000 0.750000
vt 0.125000 0.500000
vn -0.8119 0.5239 -0.2576
vn 0.0000 -0.4127 -0.9108
vn 0.8119 0.5239 -0.2576
vn -0.2368 0.6629 0.7103
vn -0.0000 0.0373 -0.9993
vn 0.2368 0.6629 0.7103
vn 0.3757 -0.3006 0.8766
vn -0.3757 -0.3006 0.8766
vn 0.9491 -0.1663 -0.2674
vn -0.9491 -0.1663 -0.2674
vn 0.2425 0.0000 0.9701
vn -0.2425 0.0000 0.9701
vn 0.9782 0.0000 -0.2076
vn -0.9782 0.0000 -0.2076
vn 0.0000 0.9577 -0.2877
vn 0.0000 -0.9223 -0.3866
usemtl Material
s off
f 19/1/1 2/2/1 4/3/1 20/4/1
f 3/5/2 14/6/2 18/7/2 15/8/2 7/9/2 9/10/2
f 21/11/3 8/12/3 6/13/3 22/14/3
f 23/15/4 12/16/4 2/17/4 19/18/4
f 10/19/5 8/20/5 21/21/5 15/8/5 18/7/5 14/6/5 20/22/5 4/23/5
f 22/24/6 6/25/6 12/16/6 23/15/6
f 5/26/7 16/27/7 17/28/7 11/29/7
f 11/29/8 17/28/8 13/30/8 1/31/8
f 7/32/9 15/33/9 16/34/9 5/35/9
f 1/36/10 13/37/10 14/38/10 3/39/10
f 16/27/11 22/24/11 23/15/11 17/28/11
f 17/28/12 23/15/12 19/18/12 13/30/12
f 15/40/13 21/41/13 22/42/13 16/43/13
f 13/44/14 19/45/14 20/46/14 14/47/14
f 10/48/15 4/49/15 2/50/15 12/51/15 6/52/15 8/53/15
f 9/54/16 7/9/16 5/55/16 11/56/16 1/57/16 3/58/16
