# Blender v3.0.0 OBJ File: 'shrub1.blend'
# www.blender.org
mtllib shrub1.mtl
o Cube.013_Cube.008
v -0.122451 -0.550000 0.122451
v -0.122451 -0.550000 -0.122451
v 0.350000 0.675000 0.350000
v 0.122451 -0.550000 0.122451
v 0.000000 1.550000 0.000000
v 0.122451 -0.550000 -0.122451
v -0.350000 0.675000 0.350000
v -0.396257 -0.200000 0.396257
v -0.396257 -0.200000 -0.396257
v 0.396257 -0.200000 -0.396257
v 0.396257 -0.200000 0.396257
v -0.442262 -0.025000 0.442262
v -0.442262 -0.025000 -0.442262
v 0.442262 -0.025000 -0.442262
v 0.442262 -0.025000 0.442262
v -0.350000 -0.375000 -0.350000
v 0.350000 -0.375000 -0.350000
v 0.350000 -0.375000 0.350000
v -0.350000 -0.375000 0.350000
v 0.350000 0.675000 -0.350000
v -0.350000 0.675000 -0.350000
v 0.438192 0.325000 0.438192
v 0.438192 0.325000 -0.438192
v -0.438192 0.325000 -0.438192
v -0.438192 0.325000 0.438192
v 0.459582 0.150000 0.459582
v -0.459582 0.150000 -0.459582
v 0.459582 0.150000 -0.459582
v -0.459582 0.150000 0.459582
v -0.271734 -0.462500 -0.271734
v 0.271734 -0.462500 -0.271734
v 0.271734 -0.462500 0.271734
v -0.271734 -0.462500 0.271734
vt 0.562500 1.000000
vt 0.562500 0.750000
vt 0.562500 0.750000
vt 0.562500 1.000000
vt 0.562500 0.500000
vt 0.562500 0.250000
vt 0.562500 0.250000
vt 0.562500 0.500000
vt 1.000000 1.000000
vt 1.000000 0.000000
vt 0.000000 0.000000
vt 0.000000 1.000000
vt 0.562500 0.000000
vt 0.562500 0.000000
vt 0.125000 0.500000
vt 0.375000 0.500000
vt 0.375000 0.750000
vt 0.125000 0.750000
vt 0.625000 0.500000
vt 0.437500 0.750000
vt 0.500000 0.750000
vt 0.500000 1.000000
vt 0.437500 1.000000
vt 0.000000 0.000000
vt 1.000000 0.000000
vt 1.000000 1.000000
vt 0.000000 1.000000
vt 0.437500 0.250000
vt 0.500000 0.250000
vt 0.500000 0.500000
vt 0.437500 0.500000
vt 0.437500 0.000000
vt 0.500000 0.000000
vt 0.562500 0.750000
vt 0.562500 1.000000
vt 0.000000 0.000000
vt 1.000000 0.000000
vt 1.000000 1.000000
vt 0.000000 1.000000
vt 0.562500 0.250000
vt 0.562500 0.500000
vt 0.562500 0.000000
vt 0.406250 0.000000
vt 0.406250 0.250000
vt 0.406250 0.500000
vt 0.000000 0.000000
vt 1.000000 0.000000
vt 1.000000 1.000000
vt 0.000000 1.000000
vt 0.406250 0.750000
vt 0.406250 1.000000
vt 0.625000 0.250000
vt 0.500000 1.000000
vt 1.000000 0.000000
vt 0.000000 0.000000
vt 0.625000 1.000000
vt 0.562500 0.250000
vt 0.562500 0.000000
vt 1.000000 1.000000
vt 1.000000 0.000000
vt 0.000000 0.000000
vt 0.000000 1.000000
vt 0.562500 0.500000
vt 0.562500 1.000000
vt 0.562500 0.750000
vt 0.000000 1.000000
vt 0.000000 0.000000
vt 0.375000 1.000000
vt 0.000000 0.000000
vt 1.000000 0.000000
vt 1.000000 1.000000
vt 0.000000 1.000000
vt 0.375000 0.250000
vt 0.375000 0.000000
vn 0.0000 0.2443 0.9697
vn 0.0000 0.2443 -0.9697
vn 0.9697 0.2443 0.0000
vn -0.9697 0.2443 0.0000
vn 0.0000 -1.0000 0.0000
vn 0.0000 0.3714 -0.9285
vn 0.0000 -0.2555 0.9668
vn 0.9668 -0.2555 0.0000
vn 0.0000 -0.2555 -0.9668
vn -0.9668 -0.2555 0.0000
vn 0.0000 -0.2542 0.9671
vn 0.9671 -0.2542 0.0000
vn 0.0000 -0.2542 -0.9671
vn -0.9671 -0.2542 0.0000
vn -0.7453 -0.6667 0.0000
vn 0.0000 -0.6667 -0.7453
vn 0.7453 -0.6667 0.0000
vn 0.0000 -0.6667 0.7453
vn -0.9285 0.3714 0.0000
vn 0.9285 0.3714 0.0000
vn 0.0000 0.3714 0.9285
vn -0.9926 0.1213 0.0000
vn 0.9926 0.1213 0.0000
vn 0.0000 0.1213 -0.9926
vn 0.0000 0.1213 0.9926
vn 0.0000 -0.0985 0.9951
vn 0.0000 -0.0985 -0.9951
vn 0.9951 -0.0985 0.0000
vn -0.9951 -0.0985 0.0000
vn 0.0000 -0.8627 0.5057
vn 0.5057 -0.8627 0.0000
vn 0.0000 -0.8627 -0.5057
vn -0.5057 -0.8627 0.0000
usemtl None
s off
f 25/1/1 22/2/1 3/3/1 7/4/1
f 23/5/2 24/6/2 21/7/2 20/8/2
f 22/9/3 23/10/3 20/11/3 3/12/3
f 24/6/4 25/13/4 7/14/4 21/7/4
f 2/15/5 6/16/5 4/17/5 1/18/5
f 21/7/6 5/19/6 20/8/6
f 18/20/7 11/21/7 8/22/7 19/23/7
f 17/24/8 10/25/8 11/26/8 18/27/8
f 16/28/9 9/29/9 10/30/9 17/31/9
f 19/32/10 8/33/10 9/29/10 16/28/10
f 11/21/11 15/34/11 12/35/11 8/22/11
f 10/36/12 14/37/12 15/38/12 11/39/12
f 9/29/13 13/40/13 14/41/13 10/30/13
f 8/33/14 12/42/14 13/40/14 9/29/14
f 33/43/15 19/32/15 16/28/15 30/44/15
f 30/44/16 16/28/16 17/31/16 31/45/16
f 31/46/17 17/47/17 18/48/17 32/49/17
f 32/50/18 18/20/18 19/23/18 33/51/18
f 7/14/19 5/52/19 21/7/19
f 20/53/20 5/54/20 3/55/20
f 3/3/21 5/56/21 7/4/21
f 27/57/22 29/58/22 25/13/22 24/6/22
f 26/59/23 28/60/23 23/61/23 22/62/23
f 28/63/24 27/57/24 24/6/24 23/5/24
f 29/64/25 26/65/25 22/2/25 25/1/25
f 12/35/26 15/34/26 26/65/26 29/64/26
f 14/41/27 13/40/27 27/57/27 28/63/27
f 15/66/28 14/67/28 28/60/28 26/59/28
f 13/40/29 12/42/29 29/58/29 27/57/29
f 4/17/30 32/50/30 33/51/30 1/68/30
f 6/69/31 31/70/31 32/71/31 4/72/31
f 2/73/32 30/44/32 31/45/32 6/16/32
f 1/74/33 33/43/33 30/44/33 2/73/33
