# Blender v3.0.0 OBJ File: 'trunk1.blend'
# www.blender.org
mtllib trunk1.mtl
o Cube.009_Cube.004
v 0.500000 -0.500000 -0.207906
v 0.500000 0.500000 -0.207906
v -0.500000 -0.500000 0.132877
v -0.500000 0.500000 0.132877
v 0.195829 -0.500000 0.500000
v 0.195829 0.500000 0.500000
v -0.185242 -0.500000 -0.500000
v -0.185242 0.500000 -0.500000
v -0.015869 -0.500000 0.500000
v -0.215614 -0.500000 0.417263
v -0.215614 0.500000 0.417263
v -0.015869 0.500000 0.500000
v -0.500000 -0.500000 0.004381
v -0.365916 -0.500000 -0.319326
v -0.365916 0.500000 -0.319326
v -0.500000 0.500000 0.004381
v -0.000842 -0.500000 -0.500000
v 0.355513 -0.500000 -0.352393
v 0.355513 0.500000 -0.352393
v -0.000842 0.500000 -0.500000
v 0.500000 -0.500000 -0.031432
v 0.339303 -0.500000 0.356526
v 0.339303 0.500000 0.356526
v 0.500000 0.500000 -0.031432
vt 0.000000 0.000000
vt 1.000000 0.000000
vt 1.000000 1.000000
vt 0.000000 1.000000
vt 0.000000 0.000000
vt 1.000000 0.000000
vt 1.000000 1.000000
vt 0.000000 1.000000
vt 0.000000 0.000000
vt 1.000000 0.000000
vt 1.000000 1.000000
vt 0.000000 1.000000
vt 0.625000 0.573024
vt 0.661122 0.536902
vt 0.750211 0.500000
vt 0.796311 0.500000
vt 0.841479 0.545169
vt 0.875000 0.626095
vt 0.875000 0.658219
vt 0.803903 0.729316
vt 0.753967 0.750000
vt 0.701043 0.750000
vt 0.665174 0.714131
vt 0.625000 0.617142
vt 0.000000 0.000000
vt 1.000000 0.000000
vt 1.000000 1.000000
vt 0.000000 1.000000
vt 1.000000 1.000000
vt 0.000000 1.000000
vt 0.000000 0.000000
vt 1.000000 0.000000
vt 0.000000 0.000000
vt 1.000000 0.000000
vt 1.000000 1.000000
vt 0.000000 1.000000
vt 0.000000 0.000000
vt 1.000000 0.000000
vt 1.000000 1.000000
vt 0.000000 1.000000
vt 0.000000 0.000000
vt 1.000000 0.000000
vt 1.000000 1.000000
vt 0.000000 1.000000
vt 1.000000 1.000000
vt 0.000000 1.000000
vt 0.000000 0.000000
vt 1.000000 0.000000
vt 0.000000 0.000000
vt 1.000000 0.000000
vt 1.000000 1.000000
vt 0.000000 1.000000
vt 1.000000 1.000000
vt 0.000000 1.000000
vt 0.000000 0.000000
vt 1.000000 0.000000
vt 0.000000 0.000000
vt 1.000000 0.000000
vt 1.000000 1.000000
vt 0.000000 1.000000
vt 0.125000 0.626095
vt 0.158521 0.545169
vt 0.203689 0.500000
vt 0.249790 0.500000
vt 0.338878 0.536902
vt 0.375000 0.573024
vt 0.375000 0.617142
vt 0.334826 0.714131
vt 0.298957 0.750000
vt 0.246033 0.750000
vt 0.196097 0.729316
vt 0.125000 0.658219
vn 0.0000 0.0000 -1.0000
vn 0.0000 0.0000 1.0000
vn 1.0000 0.0000 0.0000
vn 0.0000 1.0000 -0.0000
vn -1.0000 0.0000 0.0000
vn 0.7071 0.0000 -0.7071
vn -0.3827 -0.0000 0.9239
vn -0.7071 0.0000 0.7071
vn -0.9239 0.0000 -0.3827
vn -0.7071 -0.0000 -0.7071
vn 0.3827 -0.0000 -0.9239
vn 0.7071 -0.0000 0.7071
vn 0.9239 -0.0000 0.3827
vn 0.0000 -1.0000 0.0000
usemtl None
s off
f 7/1/1 8/2/1 20/3/1 17/4/1
f 5/5/2 6/6/2 12/7/2 9/8/2
f 1/9/3 2/10/3 24/11/3 21/12/3
f 2/13/4 19/14/4 20/15/4 8/16/4 15/17/4 16/18/4 4/19/4 11/20/4 12/21/4 6/22/4 23/23/4 24/24/4
f 3/25/5 4/26/5 16/27/5 13/28/5
f 2/29/6 1/30/6 18/31/6 19/32/6
f 9/33/7 12/34/7 11/35/7 10/36/7
f 10/37/8 11/38/8 4/39/8 3/40/8
f 13/41/9 16/42/9 15/43/9 14/44/9
f 8/45/10 7/46/10 14/47/10 15/48/10
f 17/49/11 20/50/11 19/51/11 18/52/11
f 6/53/12 5/54/12 22/55/12 23/56/12
f 21/57/13 24/58/13 23/59/13 22/60/13
f 13/61/14 14/62/14 7/63/14 17/64/14 18/65/14 1/66/14 21/67/14 22/68/14 5/69/14 9/70/14 10/71/14 3/72/14
