# Blender v3.0.0 OBJ File: 'trunk3_fallen.blend'
# www.blender.org
mtllib trunk3_fallen.mtl
o Cube.009_Cube.004
v 0.500000 -0.182491 0.386177
v 0.500000 -0.386177 0.182491
v -0.500000 -0.386779 0.182740
v -0.500000 -0.182740 0.386779
v 0.500000 0.386177 0.053808
v 0.500000 0.053808 0.386177
v -0.500000 0.054058 0.386779
v -0.500000 0.386779 0.054058
v 0.500000 0.167818 -0.386177
v 0.500000 0.386177 -0.167818
v -0.500000 0.386779 -0.168068
v -0.500000 0.168068 -0.386779
v 0.500000 -0.386177 -0.204610
v 0.500000 -0.204610 -0.386177
v -0.500000 -0.204860 -0.386779
v -0.500000 -0.386779 -0.204860
v -0.500000 -0.229638 0.500000
v -0.500000 -0.500000 0.229638
v -0.500000 0.500000 0.100955
v -0.500000 0.100955 0.500000
v -0.500000 0.214966 -0.500000
v -0.500000 0.500000 -0.214965
v -0.500000 -0.500000 -0.251757
v -0.500000 -0.251757 -0.500000
v 0.500000 -0.182740 0.386779
v 0.500000 -0.386779 0.182740
v 0.500000 0.386779 0.054058
v 0.500000 0.054058 0.386779
v 0.500000 0.168068 -0.386779
v 0.500000 0.386779 -0.168068
v 0.500000 -0.386779 -0.204860
v 0.500000 -0.204860 -0.386779
v 0.500000 -0.500000 0.229638
v 0.500000 -0.229638 0.500000
v 0.500000 0.100955 0.500000
v 0.500000 0.500000 0.100955
v 0.500000 0.500000 -0.214965
v 0.500000 0.214965 -0.500000
v 0.500000 -0.251757 -0.500000
v 0.500000 -0.500000 -0.251757
vt 1.000000 0.999999
vt 0.000000 1.000000
vt 0.000000 0.000000
vt 1.000000 0.000000
vt 0.993116 1.000000
vt 0.006884 1.000000
vt 0.000000 0.000001
vt 1.000000 0.000000
vt 1.000000 1.000000
vt 0.000000 1.000000
vt 0.000000 0.000000
vt 1.000000 0.000000
vt 0.000000 0.000000
vt 1.000000 0.000000
vt 1.000000 1.000000
vt 0.000000 1.000000
vt 1.000000 1.000000
vt 0.000000 1.000000
vt 0.000000 0.000000
vt 0.000000 0.000000
vt 1.000000 0.000000
vt 1.000000 1.000000
vt 0.000000 1.000000
vt 0.000000 1.000000
vt 0.000000 0.000000
vt 1.000000 0.000000
vt 1.000000 1.000000
vt 1.000000 1.000000
vt 0.000000 0.999999
vt 1.000000 0.000001
vt 0.000000 0.000000
vt 1.000000 0.000000
vt 1.000000 1.000000
vt 0.000000 1.000000
vt 0.886779 0.317260
vt 0.682740 0.113221
vt 0.729638 0.000000
vt 1.000000 0.270362
vt 0.554058 0.886779
vt 0.886779 0.554058
vt 1.000000 0.600955
vt 0.600955 1.000000
vt 0.113221 0.668068
vt 0.331932 0.886779
vt 0.285035 1.000000
vt 0.000000 0.714965
vt 0.295140 0.113221
vt 0.113221 0.295140
vt 0.000000 0.248243
vt 0.248243 0.000000
vt 0.000000 0.000001
vt 0.000000 1.000000
vt 1.000000 1.000000
vt 1.000000 0.000000
vt 0.000000 0.000001
vt 0.000000 1.000000
vt 1.000000 0.999999
vt 1.000000 0.000000
vt 0.000000 1.000000
vt 1.000000 0.999999
vt 0.000000 1.000000
vt 0.000000 0.000001
vt 1.000000 0.000000
vt 1.000000 1.000000
vt 0.000000 1.000000
vt 0.000000 0.000001
vt 1.000000 0.000000
vt 1.000000 1.000000
vt 0.000000 0.000000
vt 1.000000 0.000000
vt 0.000000 0.000000
vt 0.000000 1.000000
vt 1.000000 1.000000
vt 1.000000 0.000000
vt 0.317509 0.113823
vt 0.113823 0.317510
vt 0.000000 0.270362
vt 0.270362 0.000000
vt 0.113823 0.553808
vt 0.446192 0.886177
vt 0.399045 1.000000
vt 0.000000 0.600955
vt 0.667818 0.886177
vt 0.886177 0.667818
vt 1.000000 0.714965
vt 0.714965 1.000000
vt 0.886177 0.295390
vt 0.704610 0.113823
vt 0.751758 0.000000
vt 1.000000 0.248243
vn 0.0000 1.0000 0.0000
vn -0.0000 0.0000 1.0000
vn -0.0000 -0.7071 0.7071
vn 0.0000 0.7071 0.7071
vn -0.0000 -1.0000 -0.0000
vn 0.0000 0.7071 -0.7071
vn -0.0000 -0.7071 -0.7071
vn 0.0000 -0.0000 -1.0000
vn -1.0000 0.0000 -0.0000
vn 1.0000 0.0000 0.0000
usemtl None
s off
f 37/1/1 22/2/1 19/3/1 36/4/1
f 35/5/2 20/6/2 17/7/2 34/8/2
f 34/9/3 17/10/3 18/11/3 33/12/3
f 20/13/4 35/14/4 36/15/4 19/16/4
f 33/12/5 18/17/5 23/18/5 40/19/5
f 22/20/6 37/21/6 38/22/6 21/23/6
f 12/24/2 15/25/2 32/26/2 29/27/2
f 24/28/7 39/29/7 40/19/7 23/30/7
f 39/31/8 24/32/8 21/33/8 38/34/8
f 4/35/9 3/36/9 18/37/9 17/38/9
f 8/39/9 7/40/9 20/41/9 19/42/9
f 7/40/9 4/35/9 17/38/9 20/41/9
f 12/43/9 11/44/9 22/45/9 21/46/9
f 11/44/9 8/39/9 19/42/9 22/45/9
f 16/47/9 15/48/9 24/49/9 23/50/9
f 15/48/9 12/43/9 21/46/9 24/49/9
f 3/36/9 16/47/9 23/50/9 18/37/9
f 8/51/5 11/52/5 30/53/5 27/54/5
f 4/55/8 7/56/8 28/57/8 25/58/8
f 3/59/6 4/55/6 25/58/6 26/60/6
f 16/61/1 3/62/1 26/63/1 31/64/1
f 15/65/4 16/66/4 31/67/4 32/68/4
f 11/69/3 12/24/3 29/27/3 30/70/3
f 7/71/7 8/72/7 27/73/7 28/74/7
f 2/75/10 1/76/10 34/77/10 33/78/10
f 6/79/10 5/80/10 36/81/10 35/82/10
f 1/76/10 6/79/10 35/82/10 34/77/10
f 10/83/10 9/84/10 38/85/10 37/86/10
f 5/80/10 10/83/10 37/86/10 36/81/10
f 14/87/10 13/88/10 40/89/10 39/90/10
f 9/84/10 14/87/10 39/90/10 38/85/10
f 13/88/10 2/75/10 33/78/10 40/89/10
