# Blender v3.0.0 OBJ File: 'console.blend'
# www.blender.org
mtllib console.mtl
o Cube.009_Cube
v -0.500000 -0.500000 0.500000
v -0.431866 -0.200000 0.431866
v -0.500000 -0.500000 -0.500000
v -0.431866 -0.200000 -0.431866
v 0.500000 -0.500000 0.500000
v 0.431866 -0.200000 0.431866
v 0.500000 -0.500000 -0.500000
v 0.431866 -0.200000 -0.431866
v -0.500000 -0.300000 0.500000
v -0.500000 -0.300000 -0.500000
v 0.500000 -0.300000 -0.500000
v 0.500000 -0.300000 0.500000
v -0.218542 0.300000 0.218542
v -0.218542 0.300000 -0.218542
v 0.218542 0.300000 -0.218542
v 0.218542 0.300000 0.218542
v -0.431866 0.100000 0.431866
v -0.431866 0.100000 -0.431866
v 0.431866 0.100000 -0.431866
v 0.431866 0.100000 0.431866
v -0.358550 0.200000 0.358550
v -0.358550 0.200000 -0.358550
v 0.358550 0.200000 -0.358550
v 0.358550 0.200000 0.358550
v -0.218542 0.474649 0.179019
v -0.218542 0.725351 -0.179019
v 0.218542 0.725351 -0.179019
v 0.218542 0.474649 0.179019
v -0.179706 0.578840 0.204564
v -0.179706 0.784990 -0.089849
v 0.179706 0.784990 -0.089849
v 0.179706 0.578840 0.204564
v -0.218542 0.556565 0.236377
v -0.218542 0.807266 -0.121662
v 0.218542 0.807266 -0.121662
v 0.218542 0.556565 0.236377
v -0.179706 0.578840 0.204564
v -0.179706 0.784990 -0.089849
v 0.179706 0.784990 -0.089849
v 0.179706 0.578840 0.204564
v -0.179706 0.562457 0.193093
v -0.179706 0.768607 -0.101321
v 0.179706 0.768607 -0.101321
v 0.179706 0.562457 0.193093
v 0.418542 0.507830 0.131632
v 0.360694 0.474649 0.179019
v 0.360694 0.556565 0.236377
v 0.418542 0.589745 0.188990
v -0.358864 0.474649 0.179019
v -0.418542 0.508880 0.130133
v -0.418542 0.590795 0.187491
v -0.358864 0.556565 0.236377
v -0.418542 0.691476 -0.130642
v -0.359484 0.725351 -0.179019
v -0.359484 0.807266 -0.121662
v -0.418542 0.773392 -0.073284
v 0.359484 0.725351 -0.179019
v 0.418542 0.691476 -0.130642
v 0.418542 0.773392 -0.073284
v 0.359484 0.807266 -0.121662
v -0.218542 0.817934 -0.311242
v -0.179956 0.871674 -0.320718
v 0.179956 0.871674 -0.320718
v 0.218542 0.817934 -0.311242
v -0.179956 0.890373 -0.307624
v -0.218542 0.899849 -0.253884
v 0.218542 0.899849 -0.253884
v 0.179956 0.890373 -0.307624
vt 0.375000 0.000000
vt 0.625000 0.000000
vt 0.625000 0.250000
vt 0.375000 0.250000
vt 0.625000 0.500000
vt 0.375000 0.500000
vt 0.625000 0.750000
vt 0.375000 0.750000
vt 0.625000 1.000000
vt 0.375000 1.000000
vt 0.125000 0.500000
vt 0.125000 0.750000
vt 0.857966 0.732966
vt 0.642034 0.732966
vt 0.642034 0.732966
vt 0.857966 0.732966
vt 0.857966 0.517033
vt 0.875000 0.500000
vt 0.875000 0.750000
vt 0.642034 0.517033
vt 0.695364 0.570364
vt 0.804636 0.570364
vt 0.804636 0.570364
vt 0.695364 0.570364
vt 0.857966 0.517033
vt 0.642034 0.517033
vt 0.839637 0.714637
vt 0.839637 0.535363
vt 0.660363 0.535363
vt 0.660363 0.714637
vt 0.804636 0.679636
vt 0.695364 0.679636
vt 0.695364 0.679636
vt 0.804636 0.679636
vt 0.794927 0.580073
vt 0.794927 0.669927
vt 0.794927 0.669927
vt 0.794927 0.580073
vt 0.804636 0.679636
vt 0.804636 0.664716
vt 0.804636 0.585129
vt 0.804636 0.570364
vt 0.695364 0.679636
vt 0.804636 0.679636
vt 0.695364 0.570364
vt 0.695364 0.570364
vt 0.695364 0.570364
vt 0.804636 0.679636
vt 0.804636 0.570364
vt 0.804636 0.570364
vt 0.695364 0.665173
vt 0.695364 0.585129
vt 0.695364 0.585129
vt 0.695364 0.665173
vt 0.695364 0.679636
vt 0.695364 0.679636
vt 0.695364 0.570364
vt 0.695364 0.570364
vt 0.804636 0.570364
vt 0.804636 0.570364
vt 0.705011 0.570364
vt 0.794989 0.570364
vt 0.794989 0.570364
vt 0.705011 0.570364
vt 0.705073 0.580073
vt 0.705073 0.669927
vt 0.705073 0.669927
vt 0.705073 0.669927
vt 0.794927 0.669927
vt 0.705073 0.580073
vt 0.705073 0.580073
vt 0.794927 0.580073
vt 0.804636 0.664716
vt 0.804636 0.585129
vn -1.0000 0.0000 0.0000
vn 0.0000 0.0000 -1.0000
vn 1.0000 0.0000 0.0000
vn 0.0000 0.0000 1.0000
vn 0.0000 -1.0000 0.0000
vn -0.8264 0.5631 0.0000
vn 0.0000 0.5631 -0.8264
vn 0.8264 0.5631 0.0000
vn 0.0000 0.5631 0.8264
vn 0.0000 0.0925 -0.9957
vn -0.8065 0.5913 0.0000
vn 0.0000 0.5913 -0.8065
vn 0.8065 0.5913 0.0000
vn 0.0000 0.5913 0.8065
vn -0.5812 0.8137 0.0000
vn 0.0000 0.8137 -0.5812
vn 0.5812 0.8137 0.0000
vn 0.0000 0.8137 0.5812
vn 0.0000 0.2207 0.9753
vn 0.0000 -0.8192 -0.5736
vn 0.0000 -0.5736 0.8192
vn 0.0000 0.5736 -0.8192
vn 0.0000 0.8192 0.5736
vn 0.7071 -0.4056 0.5792
vn -0.7071 -0.4056 0.5792
vn -0.7071 0.4056 -0.5792
vn 0.7071 0.4056 -0.5792
vn 0.0000 -0.1736 -0.9848
vn 0.0000 0.9848 -0.1736
usemtl None
s off
f 1/1/1 9/2/1 10/3/1 3/4/1
f 3/4/2 10/3/2 11/5/2 7/6/2
f 7/6/3 11/5/3 12/7/3 5/8/3
f 5/8/4 12/7/4 9/9/4 1/10/4
f 3/11/5 7/6/5 5/8/5 1/12/5
f 2/13/4 6/14/4 20/15/4 17/16/4
f 2/13/6 4/17/6 10/18/6 9/19/6
f 4/17/7 8/20/7 11/5/7 10/18/7
f 8/20/8 6/14/8 12/7/8 11/5/8
f 6/14/9 2/13/9 9/19/9 12/7/9
f 15/21/10 14/22/10 26/23/10 27/24/10
f 8/20/2 4/17/2 18/25/2 19/26/2
f 6/14/3 8/20/3 19/26/3 20/15/3
f 4/17/1 2/13/1 17/16/1 18/25/1
f 21/27/11 22/28/11 18/25/11 17/16/11
f 22/28/12 23/29/12 19/26/12 18/25/12
f 23/29/13 24/30/13 20/15/13 19/26/13
f 24/30/14 21/27/14 17/16/14 20/15/14
f 13/31/15 14/22/15 22/28/15 21/27/15
f 14/22/16 15/21/16 23/29/16 22/28/16
f 15/21/17 16/32/17 24/30/17 23/29/17
f 16/32/18 13/31/18 21/27/18 24/30/18
f 16/32/3 15/21/3 27/24/3 28/33/3
f 14/22/1 13/31/1 25/34/1 26/23/1
f 13/31/19 16/32/19 28/33/19 25/34/19
f 30/35/4 29/36/4 37/37/4 38/38/4
f 26/23/20 25/34/20 49/39/20 50/40/20 53/41/20 54/42/20
f 25/34/21 28/33/21 36/43/21 33/44/21
f 35/45/3 27/24/3 64/46/3 67/47/3
f 25/34/21 33/44/21 52/48/21 49/39/21
f 34/49/22 26/23/22 54/42/22 55/50/22
f 45/51/3 58/52/3 59/53/3 48/54/3
f 36/43/21 28/33/21 46/55/21 47/56/21
f 35/45/23 36/43/23 47/56/23 48/54/23 59/53/23 60/57/23
f 28/33/20 27/24/20 57/58/20 58/52/20 45/51/20 46/55/20
f 26/23/1 34/49/1 66/59/1 61/60/1
f 63/61/22 62/62/22 65/63/22 68/64/22
f 34/49/23 35/45/23 67/47/23 66/59/23
f 29/36/23 30/35/23 34/49/23 33/44/23
f 30/35/23 31/65/23 35/45/23 34/49/23
f 31/65/23 32/66/23 36/43/23 35/45/23
f 32/66/23 29/36/23 33/44/23 36/43/23
f 37/37/22 40/67/22 44/68/22 41/69/22
f 29/36/4 32/66/4 40/67/4 37/37/4
f 31/65/4 30/35/4 38/38/4 39/70/4
f 32/66/4 31/65/4 39/70/4 40/67/4
f 43/71/23 42/72/23 41/69/23 44/68/23
f 39/70/21 38/38/21 42/72/21 43/71/21
f 40/67/1 39/70/1 43/71/1 44/68/1
f 38/38/3 37/37/3 41/69/3 42/72/3
f 47/56/24 46/55/24 45/51/24 48/54/24
f 27/24/22 35/45/22 60/57/22 57/58/22
f 49/39/25 52/48/25 51/73/25 50/40/25
f 33/44/23 34/49/23 55/50/23 56/74/23 51/73/23 52/48/23
f 55/50/26 54/42/26 53/41/26 56/74/26
f 57/58/27 60/57/27 59/53/27 58/52/27
f 53/41/1 50/40/1 51/73/1 56/74/1
f 62/62/28 63/61/28 64/46/28 61/60/28
f 66/59/29 67/47/29 68/64/29 65/63/29
f 63/61/27 68/64/27 67/47/27 64/46/27
f 65/63/26 62/62/26 61/60/26 66/59/26
f 27/24/20 26/23/20 61/60/20 64/46/20
