# Blender v3.0.0 OBJ File: 'monolith.blend'
# www.blender.org
mtllib monolith.mtl
o Cube.009_Cube
v -0.312690 -0.500000 0.312690
v -0.312690 -0.500000 -0.312690
v 0.312690 -0.500000 0.312690
v 0.312690 -0.500000 -0.312690
v -0.322568 -0.312690 0.500000
v -0.500000 -0.312690 0.322568
v -0.397559 -0.415131 0.397559
v -0.500000 -0.312690 -0.322568
v -0.322568 -0.312690 -0.500000
v -0.397559 -0.415131 -0.397559
v 0.500000 -0.312690 0.322568
v 0.322568 -0.312690 0.500000
v 0.397559 -0.415131 0.397559
v 0.322568 -0.312690 -0.500000
v 0.500000 -0.312690 -0.322568
v 0.397559 -0.415131 -0.397559
v -0.329595 3.000000 0.251984
v -0.500000 2.829595 0.322568
v -0.251984 3.000000 0.329595
v -0.322568 2.829595 0.500000
v -0.251984 3.000000 -0.329595
v -0.322568 2.829595 -0.500000
v -0.329595 3.000000 -0.251984
v -0.500000 2.829595 -0.322568
v 0.251984 3.000000 0.329595
v 0.322568 2.829595 0.500000
v 0.329595 3.000000 0.251984
v 0.500000 2.829595 0.322568
v 0.329595 3.000000 -0.251984
v 0.500000 2.829595 -0.322568
v 0.251984 3.000000 -0.329595
v 0.322568 2.829595 -0.500000
v -0.322568 1.258452 0.500000
v -0.500000 1.258453 0.322568
v -0.500000 1.258453 -0.322568
v 0.322568 1.258452 0.500000
v -0.322568 1.258453 -0.500000
v 0.322568 1.258453 -0.500000
v 0.500000 1.258452 0.322568
v 0.500000 1.258452 -0.322568
v -0.322568 2.044024 0.500000
v 0.322568 2.044024 0.500000
v 0.500000 2.044024 0.322568
v 0.500000 2.044024 -0.322568
v -0.500000 2.044024 0.322568
v -0.500000 2.044024 -0.322568
v -0.322568 2.044024 -0.500000
v 0.322568 2.044024 -0.500000
v -0.500000 0.472881 0.322568
v -0.500000 0.472881 -0.322568
v -0.322568 0.472881 -0.500000
v 0.322568 0.472881 -0.500000
v -0.322568 0.472881 0.500000
v 0.322568 0.472881 0.500000
v 0.500000 0.472881 0.322568
v 0.500000 0.472881 -0.322568
vt 1.000000 0.000000
vt 1.000000 1.000000
vt 0.000000 1.000000
vt 0.000000 0.000000
vt 0.106738 0.000000
vt 0.893262 0.000000
vt 1.000000 0.453095
vt 0.905684 1.000000
vt 0.094315 1.000000
vt 0.000000 0.453095
vt 0.000000 1.000000
vt 0.000000 0.000000
vt 1.000000 0.000000
vt 1.000000 1.000000
vt 1.000000 0.000000
vt 1.000000 1.000000
vt 0.000000 1.000000
vt 0.000000 0.000000
vt 0.000000 1.000000
vt 0.000000 0.000000
vt 1.000000 0.000000
vt 1.000000 1.000000
vt 0.106738 0.000000
vt 0.893262 0.000000
vt 1.000000 0.453096
vt 0.905684 1.000000
vt 0.094315 1.000000
vt 0.000000 0.453096
vt 0.106738 0.000000
vt 0.893262 0.000000
vt 1.000000 0.453095
vt 0.905684 1.000000
vt 0.094315 1.000000
vt 0.000000 0.453095
vt 0.106738 0.000000
vt 0.893262 0.000000
vt 1.000000 0.453095
vt 0.905684 1.000000
vt 0.094315 1.000000
vt 0.000000 0.453095
vt 0.000000 1.000000
vt 1.000000 1.000000
vt 1.000000 0.000000
vt 0.000000 0.000000
vt 1.000000 1.000000
vt 0.000000 1.000000
vt 0.577351 0.000000
vt 1.000000 1.000000
vt 0.000000 0.999997
vt 0.422650 0.000000
vt 1.000000 1.000000
vt 0.000000 1.000000
vt 0.422650 0.000000
vt 1.000000 0.999997
vt 0.000000 1.000000
vt 0.577351 0.000000
vt 1.000000 0.000000
vt 1.000000 1.000000
vt 0.000000 1.000000
vt 0.000000 0.000000
vt 1.000000 0.000000
vt 1.000000 1.000000
vt 0.000000 1.000000
vt 0.000000 0.000000
vt 1.000000 0.000000
vt 1.000000 1.000000
vt 0.000000 1.000000
vt 0.000000 0.000000
vt 1.000000 0.000000
vt 1.000000 1.000000
vt 0.000000 1.000000
vt 0.000000 0.000000
vt 1.000000 1.000000
vt 0.687071 1.000000
vt 0.000000 0.000000
vt 0.715406 0.000000
vt 0.312929 1.000000
vt 0.000000 1.000000
vt 0.284593 0.000000
vt 1.000000 0.000000
vt 0.312929 1.000000
vt 0.000000 1.000000
vt 0.284593 0.000000
vt 1.000000 0.000000
vt 1.000000 1.000000
vt 0.687071 1.000000
vt 0.000000 0.000000
vt 0.715406 0.000000
vt 0.608613 0.705642
vt 0.608613 0.544358
vt 0.667601 0.562004
vt 0.667601 0.687996
vt 0.000000 0.000000
vt 1.000000 0.000000
vt 0.890590 1.000000
vt 0.109410 1.000000
vt 0.875000 0.544358
vt 0.875000 0.705642
vt 0.832399 0.687996
vt 0.832399 0.562004
vt 0.000000 0.000000
vt 1.000000 0.000000
vt 0.890590 1.000000
vt 0.109410 1.000000
vt 1.000000 0.882262
vt 0.882262 1.000000
vt 0.117738 1.000000
vt 0.000000 0.882262
vt 0.000000 0.117738
vt 0.117738 0.000000
vt 0.882262 0.000000
vt 1.000000 0.117738
vt 1.000000 0.000000
vt 1.000000 1.000000
vt 0.000000 1.000000
vt 0.000000 0.000000
vt 1.000000 0.000000
vt 1.000000 1.000000
vt 0.000000 1.000000
vt 0.000000 0.000000
vt 1.000000 0.000000
vt 1.000000 1.000000
vt 0.000000 1.000000
vt 0.000000 0.000000
vt 1.000000 0.000000
vt 1.000000 1.000000
vt 0.000000 1.000000
vt 0.000000 0.000000
vt 0.000000 1.000000
vt 0.000000 0.000000
vt 1.000000 0.000000
vt 1.000000 1.000000
vt 1.000000 0.000000
vt 1.000000 1.000000
vt 0.000000 1.000000
vt 0.000000 0.000000
vt 0.000000 1.000000
vt 0.000000 0.000000
vt 1.000000 0.000000
vt 1.000000 1.000000
vt 1.000000 0.000000
vt 1.000000 1.000000
vt 0.000000 1.000000
vt 0.000000 0.000000
vt 0.000000 1.000000
vt 0.000000 0.000000
vt 1.000000 0.000000
vt 1.000000 1.000000
vt 0.000000 1.000000
vt 0.000000 0.000000
vt 1.000000 0.000000
vt 1.000000 1.000000
vt 1.000000 0.000000
vt 1.000000 1.000000
vt 0.000000 1.000000
vt 0.000000 0.000000
vt 1.000000 0.000000
vt 1.000000 1.000000
vt 0.000000 1.000000
vt 0.000000 0.000000
vt 1.000000 0.000000
vt 1.000000 1.000000
vt 0.000000 1.000000
vt 0.000000 0.000000
vt 1.000000 0.000000
vt 1.000000 1.000000
vt 0.000000 1.000000
vt 0.000000 0.000000
vt 1.000000 0.000000
vt 1.000000 1.000000
vt 0.000000 1.000000
vt 0.000000 0.000000
vt 1.000000 0.000000
vt 1.000000 1.000000
vt 0.000000 1.000000
vt 0.000000 0.000000
vt 1.000000 0.000000
vt 1.000000 1.000000
vt 0.000000 1.000000
vt 0.000000 0.000000
vt 1.000000 0.000000
vt 1.000000 1.000000
vt 0.000000 1.000000
vt 0.000000 0.000000
vt 1.000000 0.000000
vt 1.000000 1.000000
vt 0.000000 1.000000
vt 0.000000 0.000000
vt 1.000000 0.000000
vt 1.000000 1.000000
vt 0.000000 1.000000
vt 0.000000 0.000000
vt 1.000000 0.000000
vt 1.000000 1.000000
vt 0.000000 1.000000
vt 0.000000 0.000000
vt 1.000000 0.000000
vt 1.000000 1.000000
vt 0.000000 1.000000
vt 0.000000 0.000000
vt 0.000000 1.000000
vt 0.000000 0.000000
vt 1.000000 0.000000
vt 1.000000 1.000000
vt 0.000000 1.000000
vt 0.000000 0.000000
vt 1.000000 0.000000
vt 1.000000 1.000000
vn 0.0000 0.0000 1.0000
vn 0.0000 -0.7071 0.7071
vn 0.7071 0.0000 -0.7071
vn 0.7071 0.0000 0.7071
vn -0.7071 0.0000 -0.7071
vn 0.0000 -0.7071 -0.7071
vn 0.7071 -0.7071 0.0000
vn -0.7071 -0.7071 0.0000
vn 0.0000 -1.0000 0.0000
vn -0.6947 -0.1862 0.6947
vn -0.6947 -0.1862 -0.6947
vn 0.6947 -0.1862 0.6947
vn 0.6947 -0.1862 -0.6947
vn -1.0000 0.0000 0.0000
vn 0.0000 0.0000 -1.0000
vn 1.0000 0.0000 0.0000
vn -0.7071 0.0000 0.7071
vn -0.5000 0.7071 0.5000
vn -0.5000 0.7071 -0.5000
vn 0.5000 0.7071 0.5000
vn 0.5000 0.7071 -0.5000
vn 0.7071 0.7071 0.0000
vn 0.0000 0.7071 -0.7071
vn -0.7071 0.7071 0.0000
vn 0.0000 0.7071 0.7071
vn 0.0000 1.0000 -0.0000
usemtl None
s off
f 42/1/1 26/2/1 20/3/1 41/4/1
f 1/5/2 3/6/2 13/7/2 12/8/2 5/9/2 7/10/2
f 56/11/3 15/12/3 14/13/3 52/14/3
f 43/15/4 28/16/4 26/17/4 42/18/4
f 51/19/5 9/20/5 8/21/5 50/22/5
f 4/23/6 2/24/6 10/25/6 9/26/6 14/27/6 16/28/6
f 3/29/7 4/30/7 16/31/7 15/32/7 11/33/7 13/34/7
f 2/35/8 1/36/8 7/37/8 6/38/8 8/39/8 10/40/8
f 2/41/9 4/42/9 3/43/9 1/44/9
f 5/45/10 6/46/10 7/47/10
f 8/48/11 9/49/11 10/50/11
f 11/51/12 12/52/12 13/53/12
f 14/54/13 15/55/13 16/56/13
f 45/57/14 18/58/14 24/59/14 46/60/14
f 47/61/15 22/62/15 32/63/15 48/64/15
f 44/65/16 30/66/16 28/67/16 43/68/16
f 41/69/17 20/70/17 18/71/17 45/72/17
f 19/73/18 17/74/18 18/75/18 20/76/18
f 23/77/19 21/78/19 22/79/19 24/80/19
f 27/81/20 25/82/20 26/83/20 28/84/20
f 31/85/21 29/86/21 30/87/21 32/88/21
f 28/89/22 30/90/22 29/91/22 27/92/22
f 32/93/23 22/94/23 21/95/23 31/96/23
f 24/97/24 18/98/24 17/99/24 23/100/24
f 20/101/25 26/102/25 25/103/25 19/104/25
f 29/105/26 31/106/26 21/107/26 23/108/26 17/109/26 19/110/26 25/111/26 27/112/26
f 53/113/17 33/114/17 34/115/17 49/116/17
f 56/117/16 40/118/16 39/119/16 55/120/16
f 51/121/15 37/122/15 38/123/15 52/124/15
f 49/125/14 34/126/14 35/127/14 50/128/14
f 47/129/5 37/130/5 35/131/5 46/132/5
f 55/133/4 39/134/4 36/135/4 54/136/4
f 44/137/3 40/138/3 38/139/3 48/140/3
f 54/141/1 36/142/1 33/143/1 53/144/1
f 30/145/3 44/146/3 48/147/3 32/148/3
f 22/149/5 47/150/5 46/151/5 24/152/5
f 33/153/17 41/154/17 45/155/17 34/156/17
f 40/157/16 44/158/16 43/159/16 39/160/16
f 37/161/15 47/162/15 48/163/15 38/164/15
f 34/165/14 45/166/14 46/167/14 35/168/14
f 39/169/4 43/170/4 42/171/4 36/172/4
f 36/173/1 42/174/1 41/175/1 33/176/1
f 12/177/1 54/178/1 53/179/1 5/180/1
f 11/181/4 55/182/4 54/183/4 12/184/4
f 6/185/14 49/186/14 50/187/14 8/188/14
f 9/189/15 51/190/15 52/191/15 14/192/15
f 15/193/16 56/194/16 55/195/16 11/196/16
f 5/197/17 53/198/17 49/199/17 6/200/17
f 37/201/5 51/202/5 50/203/5 35/204/5
f 40/205/3 56/206/3 52/207/3 38/208/3
