# Blender v3.0.0 OBJ File: 'pedestal.blend'
# www.blender.org
mtllib pedestal.mtl
o Cube.009_Cube
v -0.280000 0.200000 0.280000
v -0.280000 0.200000 -0.280000
v 0.280000 0.200000 0.280000
v 0.280000 0.200000 -0.280000
v -0.305610 -0.500000 0.305610
v -0.441717 -0.314553 0.441717
v -0.305610 -0.500000 -0.305610
v -0.441717 -0.314553 -0.441717
v 0.305610 -0.500000 0.305610
v 0.441717 -0.314553 0.441717
v 0.305610 -0.500000 -0.305610
v 0.441717 -0.314553 -0.441717
vt 1.000000 0.000000
vt 0.816945 1.000000
vt 0.183055 1.000000
vt 0.000000 0.000000
vt 1.000000 0.000000
vt 0.816945 1.000000
vt 0.183055 1.000000
vt 0.000000 0.000000
vt 1.000000 0.000000
vt 0.816945 1.000000
vt 0.183055 1.000000
vt 0.000000 0.000000
vt 1.000000 0.000000
vt 0.816945 1.000000
vt 0.183055 1.000000
vt 0.000000 0.000000
vt 1.000000 1.000000
vt 0.000000 1.000000
vt 0.000000 0.000000
vt 1.000000 0.000000
vt 0.154065 0.000000
vt 0.845934 0.000000
vt 1.000000 1.000000
vt 0.000000 1.000000
vt 0.154065 0.000000
vt 0.845934 0.000000
vt 1.000000 1.000000
vt 0.000000 1.000000
vt 0.154065 0.000000
vt 0.845934 0.000000
vt 1.000000 1.000000
vt 0.000000 1.000000
vt 0.154065 0.000000
vt 0.845934 0.000000
vt 1.000000 1.000000
vt 0.000000 1.000000
vt 0.000000 0.000000
vt 1.000000 0.000000
vt 1.000000 1.000000
vt 0.000000 1.000000
vn 0.0000 0.2998 0.9540
vn 0.9540 0.2998 0.0000
vn 0.0000 0.2998 -0.9540
vn -0.9540 0.2998 0.0000
vn 0.0000 1.0000 0.0000
vn -0.8062 -0.5917 0.0000
vn 0.0000 -0.5917 -0.8062
vn 0.8062 -0.5917 0.0000
vn 0.0000 -0.5917 0.8062
vn 0.0000 -1.0000 0.0000
usemtl None
s off
f 10/1/1 3/2/1 1/3/1 6/4/1
f 12/5/2 4/6/2 3/7/2 10/8/2
f 8/9/3 2/10/3 4/11/3 12/12/3
f 6/13/4 1/14/4 2/15/4 8/16/4
f 4/17/5 2/18/5 1/19/5 3/20/5
f 7/21/6 5/22/6 6/23/6 8/24/6
f 11/25/7 7/26/7 8/27/7 12/28/7
f 9/29/8 11/30/8 12/31/8 10/32/8
f 5/33/9 9/34/9 10/35/9 6/36/9
f 7/37/10 11/38/10 9/39/10 5/40/10
o Cube.010_Cube.008
v -0.161280 0.605200 0.161280
v -0.161280 0.605200 -0.161280
v 0.161280 0.605200 0.161280
v 0.161280 0.605200 -0.161280
v -0.176031 0.202000 0.176031
v -0.254429 0.308817 0.254429
v -0.176031 0.202000 -0.176031
v -0.254429 0.308817 -0.254429
v 0.176031 0.202000 0.176031
v 0.254429 0.308817 0.254429
v 0.176031 0.202000 -0.176031
v 0.254429 0.308817 -0.254429
vt 1.000000 0.000000
vt 0.816945 1.000000
vt 0.183055 1.000000
vt 0.000000 0.000000
vt 1.000000 0.000000
vt 0.816945 1.000000
vt 0.183055 1.000000
vt 0.000000 0.000000
vt 1.000000 0.000000
vt 0.816945 1.000000
vt 0.183055 1.000000
vt 0.000000 0.000000
vt 1.000000 0.000000
vt 0.816945 1.000000
vt 0.183055 1.000000
vt 0.000000 0.000000
vt 1.000000 1.000000
vt 0.000000 1.000000
vt 0.000000 0.000000
vt 1.000000 0.000000
vt 0.154065 0.000000
vt 0.845934 0.000000
vt 1.000000 1.000000
vt 0.000000 1.000000
vt 0.154065 0.000000
vt 0.845934 0.000000
vt 1.000000 1.000000
vt 0.000000 1.000000
vt 0.154065 0.000000
vt 0.845934 0.000000
vt 1.000000 1.000000
vt 0.000000 1.000000
vt 0.154065 0.000000
vt 0.845934 0.000000
vt 1.000000 1.000000
vt 0.000000 1.000000
vt 0.000000 0.000000
vt 1.000000 0.000000
vt 1.000000 1.000000
vt 0.000000 1.000000
vn 0.0000 0.2998 0.9540
vn 0.9540 0.2998 0.0000
vn 0.0000 0.2998 -0.9540
vn -0.9540 0.2998 0.0000
vn 0.0000 1.0000 0.0000
vn -0.8062 -0.5917 0.0000
vn 0.0000 -0.5917 -0.8062
vn 0.8062 -0.5917 0.0000
vn 0.0000 -0.5917 0.8062
vn 0.0000 -1.0000 0.0000
usemtl None
s off
f 22/41/11 15/42/11 13/43/11 18/44/11
f 24/45/12 16/46/12 15/47/12 22/48/12
f 20/49/13 14/50/13 16/51/13 24/52/13
f 18/53/14 13/54/14 14/55/14 20/56/14
f 16/57/15 14/58/15 13/59/15 15/60/15
f 19/61/16 17/62/16 18/63/16 20/64/16
f 23/65/17 19/66/17 20/67/17 24/68/17
f 21/69/18 23/70/18 24/71/18 22/72/18
f 17/73/19 21/74/19 22/75/19 18/76/19
f 19/77/20 23/78/20 21/79/20 17/80/20
o Cube.011_Cube.009
v -0.094080 0.837200 0.094080
v -0.094080 0.837200 -0.094080
v 0.094080 0.837200 0.094080
v 0.094080 0.837200 -0.094080
v -0.102685 0.602000 0.102685
v -0.148417 0.664310 0.148417
v -0.102685 0.602000 -0.102685
v -0.148417 0.664310 -0.148417
v 0.102685 0.602000 0.102685
v 0.148417 0.664310 0.148417
v 0.102685 0.602000 -0.102685
v 0.148417 0.664310 -0.148417
vt 1.000000 0.000000
vt 0.816945 1.000000
vt 0.183055 1.000000
vt 0.000000 0.000000
vt 1.000000 0.000000
vt 0.816945 1.000000
vt 0.183055 1.000000
vt 0.000000 0.000000
vt 1.000000 0.000000
vt 0.816945 1.000000
vt 0.183055 1.000000
vt 0.000000 0.000000
vt 1.000000 0.000000
vt 0.816945 1.000000
vt 0.183055 1.000000
vt 0.000000 0.000000
vt 1.000000 1.000000
vt 0.000000 1.000000
vt 0.000000 0.000000
vt 1.000000 0.000000
vt 0.154065 0.000000
vt 0.845934 0.000000
vt 1.000000 1.000000
vt 0.000000 1.000000
vt 0.154065 0.000000
vt 0.845934 0.000000
vt 1.000000 1.000000
vt 0.000000 1.000000
vt 0.154065 0.000000
vt 0.845934 0.000000
vt 1.000000 1.000000
vt 0.000000 1.000000
vt 0.154065 0.000000
vt 0.845934 0.000000
vt 1.000000 1.000000
vt 0.000000 1.000000
vt 0.000000 0.000000
vt 1.000000 0.000000
vt 1.000000 1.000000
vt 0.000000 1.000000
vn 0.0000 0.2998 0.9540
vn 0.9540 0.2998 0.0000
vn 0.0000 0.2998 -0.9540
vn -0.9540 0.2998 0.0000
vn 0.0000 1.0000 0.0000
vn -0.8062 -0.5917 0.0000
vn 0.0000 -0.5917 -0.8062
vn 0.8062 -0.5917 0.0000
vn 0.0000 -0.5917 0.8062
vn 0.0000 -1.0000 0.0000
usemtl None
s off
f 34/81/21 27/82/21 25/83/21 30/84/21
f 36/85/22 28/86/22 27/87/22 34/88/22
f 32/89/23 26/90/23 28/91/23 36/92/23
f 30/93/24 25/94/24 26/95/24 32/96/24
f 28/97/25 26/98/25 25/99/25 27/100/25
f 31/101/26 29/102/26 30/103/26 32/104/26
f 35/105/27 31/106/27 32/107/27 36/108/27
f 33/109/28 35/110/28 36/111/28 34/112/28
f 29/113/29 33/114/29 34/115/29 30/116/29
f 31/117/30 35/118/30 33/119/30 29/120/30
